<mxfile host="app.diagrams.net" modified="2023-10-15T17:03:08.710Z" agent="Mozilla/5.0 (X11; Linux x86_64) AppleWebKit/537.36 (KHTML, like Gecko) Chrome/118.0.0.0 Safari/537.36" etag="dkoudWYsKVX2wcpRlE4n" version="22.0.4" type="device">
  <diagram name="Page-1" id="2zfQvtC2D7Y-XlgsGDSv">
    <mxGraphModel dx="1179" dy="654" grid="1" gridSize="10" guides="1" tooltips="1" connect="1" arrows="1" fold="1" page="1" pageScale="1" pageWidth="827" pageHeight="1169" math="0" shadow="0">
      <root>
        <mxCell id="0" />
        <mxCell id="1" parent="0" />
        <mxCell id="DYGLtFdUBQWM_LiFDQZu-1" value="&lt;font style=&quot;font-size: 21px;&quot;&gt;CODE&lt;/font&gt;" style="rounded=0;whiteSpace=wrap;html=1;fillColor=#f8cecc;strokeColor=#b85450;" vertex="1" parent="1">
          <mxGeometry x="270" y="280" width="200" height="50" as="geometry" />
        </mxCell>
        <mxCell id="DYGLtFdUBQWM_LiFDQZu-2" value="&lt;font style=&quot;font-size: 20px;&quot;&gt;DONNÉES&lt;/font&gt;" style="rounded=0;whiteSpace=wrap;html=1;fillColor=#e1d5e7;strokeColor=#9673a6;" vertex="1" parent="1">
          <mxGeometry x="270" y="330" width="200" height="50" as="geometry" />
        </mxCell>
        <mxCell id="DYGLtFdUBQWM_LiFDQZu-3" value="&lt;font style=&quot;font-size: 21px;&quot;&gt;TAS&lt;/font&gt;" style="rounded=0;whiteSpace=wrap;html=1;fillColor=#dae8fc;strokeColor=#6c8ebf;" vertex="1" parent="1">
          <mxGeometry x="270" y="430" width="200" height="50" as="geometry" />
        </mxCell>
        <mxCell id="DYGLtFdUBQWM_LiFDQZu-4" value="&lt;font style=&quot;font-size: 21px;&quot;&gt;PILE&lt;/font&gt;" style="rounded=0;whiteSpace=wrap;html=1;fillColor=#fff2cc;strokeColor=#d6b656;" vertex="1" parent="1">
          <mxGeometry x="270" y="540" width="200" height="50" as="geometry" />
        </mxCell>
        <mxCell id="DYGLtFdUBQWM_LiFDQZu-5" value="&lt;font style=&quot;font-size: 20px;&quot;&gt;DONNÉES&lt;/font&gt;" style="rounded=0;whiteSpace=wrap;html=1;fillColor=#d5e8d4;strokeColor=#82b366;" vertex="1" parent="1">
          <mxGeometry x="270" y="380" width="200" height="50" as="geometry" />
        </mxCell>
        <mxCell id="DYGLtFdUBQWM_LiFDQZu-8" value="" style="endArrow=none;dashed=1;html=1;dashPattern=1 3;strokeWidth=4;rounded=0;" edge="1" parent="1">
          <mxGeometry width="50" height="50" relative="1" as="geometry">
            <mxPoint x="369.86" y="530" as="sourcePoint" />
            <mxPoint x="369.66" y="490" as="targetPoint" />
          </mxGeometry>
        </mxCell>
        <mxCell id="DYGLtFdUBQWM_LiFDQZu-9" value="&lt;b&gt;RX&lt;/b&gt;" style="rounded=0;whiteSpace=wrap;html=1;fillColor=#f5f5f5;fontColor=#333333;strokeColor=#666666;" vertex="1" parent="1">
          <mxGeometry x="440" y="310" width="30" height="20" as="geometry" />
        </mxCell>
        <mxCell id="DYGLtFdUBQWM_LiFDQZu-10" value="&lt;b&gt;R&lt;/b&gt;" style="rounded=0;whiteSpace=wrap;html=1;fillColor=#f5f5f5;fontColor=#333333;strokeColor=#666666;" vertex="1" parent="1">
          <mxGeometry x="440" y="360" width="30" height="20" as="geometry" />
        </mxCell>
        <mxCell id="DYGLtFdUBQWM_LiFDQZu-11" value="&lt;b&gt;RW&lt;/b&gt;" style="rounded=0;whiteSpace=wrap;html=1;fillColor=#f5f5f5;fontColor=#333333;strokeColor=#666666;" vertex="1" parent="1">
          <mxGeometry x="440" y="410" width="30" height="20" as="geometry" />
        </mxCell>
        <mxCell id="DYGLtFdUBQWM_LiFDQZu-12" value="&lt;b&gt;RW&lt;/b&gt;" style="rounded=0;whiteSpace=wrap;html=1;fillColor=#f5f5f5;fontColor=#333333;strokeColor=#666666;" vertex="1" parent="1">
          <mxGeometry x="440" y="460" width="30" height="20" as="geometry" />
        </mxCell>
        <mxCell id="DYGLtFdUBQWM_LiFDQZu-13" value="&lt;b&gt;RW&lt;/b&gt;" style="rounded=0;whiteSpace=wrap;html=1;fillColor=#f5f5f5;fontColor=#333333;strokeColor=#666666;" vertex="1" parent="1">
          <mxGeometry x="440" y="570" width="30" height="20" as="geometry" />
        </mxCell>
        <mxCell id="DYGLtFdUBQWM_LiFDQZu-15" value="&lt;b&gt;0x00000000&lt;/b&gt;" style="text;html=1;strokeColor=none;fillColor=none;align=center;verticalAlign=middle;whiteSpace=wrap;rounded=0;" vertex="1" parent="1">
          <mxGeometry x="100" y="265" width="80" height="30" as="geometry" />
        </mxCell>
        <mxCell id="DYGLtFdUBQWM_LiFDQZu-16" value="" style="endArrow=classic;html=1;rounded=0;entryX=0;entryY=0;entryDx=0;entryDy=0;exitX=1;exitY=0.5;exitDx=0;exitDy=0;" edge="1" parent="1" source="DYGLtFdUBQWM_LiFDQZu-15" target="DYGLtFdUBQWM_LiFDQZu-1">
          <mxGeometry width="50" height="50" relative="1" as="geometry">
            <mxPoint x="190" y="280" as="sourcePoint" />
            <mxPoint x="420" y="490" as="targetPoint" />
          </mxGeometry>
        </mxCell>
        <mxCell id="DYGLtFdUBQWM_LiFDQZu-17" value="&lt;b&gt;0x7FFFFFFF&lt;/b&gt;" style="text;html=1;strokeColor=none;fillColor=none;align=center;verticalAlign=middle;whiteSpace=wrap;rounded=0;" vertex="1" parent="1">
          <mxGeometry x="100" y="575" width="80" height="30" as="geometry" />
        </mxCell>
        <mxCell id="DYGLtFdUBQWM_LiFDQZu-18" value="" style="endArrow=classic;html=1;rounded=0;entryX=0;entryY=1;entryDx=0;entryDy=0;exitX=1;exitY=0.5;exitDx=0;exitDy=0;" edge="1" parent="1" source="DYGLtFdUBQWM_LiFDQZu-17" target="DYGLtFdUBQWM_LiFDQZu-4">
          <mxGeometry width="50" height="50" relative="1" as="geometry">
            <mxPoint x="200" y="595" as="sourcePoint" />
            <mxPoint x="270" y="595" as="targetPoint" />
          </mxGeometry>
        </mxCell>
        <mxCell id="DYGLtFdUBQWM_LiFDQZu-20" value="Adresses&lt;br&gt;basses" style="text;html=1;strokeColor=none;fillColor=none;align=center;verticalAlign=middle;whiteSpace=wrap;rounded=0;" vertex="1" parent="1">
          <mxGeometry x="40" y="265" width="60" height="30" as="geometry" />
        </mxCell>
        <mxCell id="DYGLtFdUBQWM_LiFDQZu-21" value="Adresses&lt;br&gt;hautes" style="text;html=1;strokeColor=none;fillColor=none;align=center;verticalAlign=middle;whiteSpace=wrap;rounded=0;" vertex="1" parent="1">
          <mxGeometry x="40" y="575" width="60" height="30" as="geometry" />
        </mxCell>
      </root>
    </mxGraphModel>
  </diagram>
</mxfile>
